<svg xmlns="http://www.w3.org/2000/svg" id="Group_35716" width="427.693" height="427.694" data-name="Group 35716" viewBox="0 0 427.693 427.694">
    <defs>
        <style>
            .cls-1,.cls-6{fill:none}.cls-1{stroke:#454b53;stroke-linecap:round;stroke-linejoin:round;stroke-width:2px}.cls-2{fill:#454b53}.cls-3{fill:#e1e1e2}.cls-4{fill:#1ac977}.cls-5{opacity:.25}.cls-6{opacity:0}
        </style>
    </defs>
    <g id="Group_32428" data-name="Group 32428" transform="translate(41.535 3.806)">
        <g id="Group_32423" data-name="Group 32423" transform="translate(124.188)">
            <path id="Path_30765" d="M2750.63 938.93h-12.515a1.4 1.4 0 0 1-1.4-1.4v-7.256h-23.165a1.4 1.4 0 0 1-1.4-1.4v-11.423a1.4 1.4 0 1 1 2.791 0v10.037h23.169a1.4 1.4 0 0 1 1.4 1.4v7.256h9.725v-7.256a1.394 1.394 0 0 1 1.4-1.4h3.83v-4.864a1.4 1.4 0 0 1 2.791 0v6.26a1.4 1.4 0 0 1-1.4 1.4h-3.83v7.256a1.4 1.4 0 0 1-1.396 1.39zm-12.515-20.084h-11.277a1.4 1.4 0 0 1-1.245-2.026l16.2-31.963h-10.177l-12.533 23.572a1.4 1.4 0 0 1-2.464-1.31l12.927-24.312a1.4 1.4 0 0 1 1.232-.741h13.286a1.4 1.4 0 0 1 1.246 2.028l-16.2 31.961h7.611v-10.191a1.4 1.4 0 0 1 1.4-1.4h12.515a1.4 1.4 0 0 1 1.4 1.4v8.5a1.4 1.4 0 1 1-2.791 0v-7.107h-9.725v10.192a1.4 1.4 0 0 1-1.405 1.397z" data-name="Path 30765" transform="translate(-2712.155 -880.985)"/>
            <path id="Path_30766" d="M2772.531 940.319a21.217 21.217 0 0 1-14.064-4.87 1.4 1.4 0 0 1 1.8-2.138 18.491 18.491 0 0 0 12.268 4.217c11.117 0 18.707-7.954 20.307-21.277a1.4 1.4 0 1 1 2.77.332c-1.787 14.863-10.412 23.736-23.081 23.736zm0-12.052c-4.339 0-9.741-2.273-10.843-13.1a1.395 1.395 0 1 1 2.775-.283c1.08 10.592 6.341 10.592 8.068 10.592 5.483 0 8.261-4.937 8.261-14.672s-2.778-14.671-8.261-14.671c-3.394 0-5.682 1.79-7 5.475a1.4 1.4 0 0 1-2.629-.938c1.71-4.795 5.04-7.329 9.625-7.329 5.041 0 11.051 3.029 11.051 17.462s-6.006 17.464-11.047 17.464zm-19.839-2.46a1.4 1.4 0 0 1-1.312-.918 41.222 41.222 0 0 1-2.259-14.085c0-17.928 9.19-29.512 23.41-29.512 10.043 0 17.81 5.788 21.312 15.882a1.4 1.4 0 0 1-2.636.915c-3.134-9.034-9.766-14.007-18.676-14.007-12.719 0-20.62 10.239-20.62 26.721a38.451 38.451 0 0 0 2.089 13.133 1.394 1.394 0 0 1-1.312 1.871z" data-name="Path 30766" transform="translate(-2697.54 -881.292)"/>
            <path id="Path_30767" d="M2826.61 938.93h-12.51a1.4 1.4 0 0 1-1.4-1.4v-7.256h-16.2a1.4 1.4 0 1 1 0-2.791h17.6a1.4 1.4 0 0 1 1.4 1.4v7.256h9.724v-7.256a1.4 1.4 0 0 1 1.4-1.4h2.958v-7.633a1.4 1.4 0 0 1 2.791 0v9.034a1.4 1.4 0 0 1-1.4 1.4h-2.958v7.256a1.4 1.4 0 0 1-1.405 1.39zm-37.078-8.651a1.394 1.394 0 0 1-1.395-1.4v-11.428a1.4 1.4 0 0 1 .15-.631l17.225-33.989a1.4 1.4 0 0 1 1.244-.765h10.049a1.4 1.4 0 0 1 0 2.791h-9.19l-16.687 32.927v11.1a1.4 1.4 0 0 1-1.396 1.395zm24.563-11.433h-11.278a1.395 1.395 0 0 1-1.244-2.026l12.269-24.209a1.4 1.4 0 0 1 2.489 1.261l-11.242 22.182h7.61v-10.19a1.4 1.4 0 0 1 1.4-1.4h12.514a1.4 1.4 0 0 1 1.4 1.4v6.636a1.4 1.4 0 0 1-2.791 0v-5.244h-9.724v10.192a1.4 1.4 0 0 1-1.398 1.398z" data-name="Path 30767" transform="translate(-2682.115 -880.985)"/>
        </g>
        <g id="Group_32424" data-name="Group 32424" transform="translate(69.726 379.316)">
            <path id="Path_30770" d="M2721.879 1163.634h-28.009a1.4 1.4 0 1 1 0-2.791h28.009a1.4 1.4 0 0 1 0 2.791z" class="cls-2" data-name="Path 30770" transform="translate(-2692.474 -1150.079)"/>
            <path id="Path_30771" d="M2849.992 1155.92h-39.126a1.4 1.4 0 1 1 0-2.791h39.126a1.4 1.4 0 1 1 0 2.791z" class="cls-2" data-name="Path 30771" transform="translate(-2646.216 -1153.129)"/>
            <path id="Path_30772" d="M2761.45 1183.134h-18.535a1.4 1.4 0 0 1 0-2.791h18.535a1.4 1.4 0 1 1 0 2.791z" class="cls-2" data-name="Path 30772" transform="translate(-2673.083 -1142.369)"/>
        </g>
        <g id="Group_32427" data-name="Group 32427" transform="translate(0 105.914)">
            <g id="Group_32425" data-name="Group 32425" transform="translate(84.613)">
                <rect id="Rectangle_3498" width="87.001" height="216.14" class="cls-3" data-name="Rectangle 3498" rx="5.494" transform="translate(25.43 9.669)"/>
                <path id="Path_30773" d="M2864.366 1085.27c6.617 0 12.34-1.233 15.065-3.026a15.544 15.544 0 0 0 1.573-1.14l-5.218 69.454c0 2.03-5.112 3.675-11.419 3.675s-11.418-1.645-11.418-3.675l-5.084-67.249s9.904 1.961 16.501 1.961z" class="cls-3" data-name="Path 30773" transform="translate(-2645.924 -908.204)"/>
                <path id="Path_30774" d="M2864.028 1084.5c-10.357 0-20.842-2.509-20.842-7.308 0-4.409 8.441-6.148 12.069-6.691a1.4 1.4 0 0 1 .414 2.762c-7.251 1.083-9.692 3.152-9.692 3.929 0 1.534 6.372 4.517 18.051 4.517s18.049-2.983 18.049-4.517-6.372-4.517-18.049-4.517h-3.051a1.4 1.4 0 0 1 0-2.791h3.051c10.355 0 20.84 2.51 20.84 7.308s-10.485 7.308-20.84 7.308z" class="cls-2" data-name="Path 30774" transform="translate(-2647.773 -912.641)"/>
                <path id="Path_30775" d="M2862.272 1136.449c-7.052 0-14.642-1.7-14.642-5.424a1.4 1.4 0 1 1 2.791 0c.226.7 4.217 2.633 11.851 2.633s11.625-1.93 11.854-2.663a1.381 1.381 0 0 1 1.394-1.38 1.406 1.406 0 0 1 1.393 1.411c-.001 3.727-7.59 5.423-14.641 5.423z" class="cls-2" data-name="Path 30775" transform="translate(-2646.016 -889.023)"/>
                <path id="Path_30776" d="M2868.011 1154.363h-.112a1.394 1.394 0 0 1-1.28-1.5l6.2-77.454a1.395 1.395 0 1 1 2.781.223l-6.2 77.453a1.4 1.4 0 0 1-1.389 1.278z" class="cls-2" data-name="Path 30776" transform="translate(-2638.51 -910.965)"/>
                <path id="Path_30777" d="M2850.78 1154.363a1.4 1.4 0 0 1-1.389-1.284l-6.2-77.453a1.4 1.4 0 1 1 2.781-.223l6.2 77.454a1.394 1.394 0 0 1-1.28 1.5.823.823 0 0 1-.112.006z" class="cls-2" data-name="Path 30777" transform="translate(-2647.772 -910.965)"/>
                <path id="Path_30779" d="M2837.8 1043.159a3.118 3.118 0 0 1 1.319 6.095c-1.683.364-6.144-1.86-6.144-1.86s3.145-3.871 4.825-4.235z" class="cls-4" data-name="Path 30779" transform="translate(-2651.809 -923.235)"/>
                <path id="Path_30780" d="M2830.418 1088.776a3.117 3.117 0 1 1 4.791 3.989c-1.1 1.323-5.986 2.318-5.986 2.318s.092-4.983 1.195-6.307z" class="cls-4" data-name="Path 30780" transform="translate(-2653.294 -905.615)"/>
                <path id="Path_30781" d="M2860.344 1104.14a1.4 1.4 0 0 1-1.131-.577c-4.66-6.425-5.574-14.819-2.643-24.268a43.31 43.31 0 0 1 6.03-12.18c5.974-8.457 10.061-16.315 12.149-23.352a31.921 31.921 0 0 0 1.209-15.009 18.6 18.6 0 0 0-3.7-8.23 1.4 1.4 0 1 1 2.172-1.753 21.39 21.39 0 0 1 4.268 9.457 34.635 34.635 0 0 1-1.272 16.329c-2.174 7.328-6.395 15.461-12.547 24.169a40.531 40.531 0 0 0-5.644 11.4c-2.7 8.7-1.947 16.034 2.237 21.8a1.4 1.4 0 0 1-1.128 2.215z" class="cls-2" data-name="Path 30781" transform="translate(-2643.146 -933.054)"/>
                <path id="Path_30782" d="M2853.1 1065.263a1.389 1.389 0 0 1-1.1-.532c-1.976-2.512-2.411-5.8-1.26-9.514a16.019 16.019 0 0 1 2.232-4.507c3.677-5.208 5.216-9.55 4.572-12.906a5.012 5.012 0 0 0-1.776-3.187 1.406 1.406 0 0 1-.388-1.93 1.388 1.388 0 0 1 1.909-.412 7.65 7.65 0 0 1 3 5c.794 4.13-.9 9.192-5.034 15.044a13.2 13.2 0 0 0-1.845 3.724c-.879 2.833-.614 5.175.789 6.958a1.395 1.395 0 0 1-1.1 2.258z" class="cls-2" data-name="Path 30782" transform="translate(-2645.034 -927.596)"/>
                <path id="Path_30783" d="M2879.6 1035.531a1.4 1.4 0 0 1-1.1-2.259c1.478-1.877 1.76-4.334.839-7.308a13.619 13.619 0 0 0-1.9-3.829c-5.066-7.169-5.5-11.968-4.976-14.731a1.4 1.4 0 1 1 2.742.52c-.424 2.234.012 6.232 4.513 12.6a16.44 16.44 0 0 1 2.281 4.613c1.194 3.85.741 7.259-1.311 9.864a1.392 1.392 0 0 1-1.088.53z" class="cls-2" data-name="Path 30783" transform="translate(-2636.262 -937.792)"/>
                <path id="Path_30784" d="M2890.727 1017.868a5.8 5.8 0 0 1-9.723-6.341c1.751-2.685 10.57-5.579 10.57-5.579s.906 9.235-.847 11.92z" class="cls-4" data-name="Path 30784" transform="translate(-2633.194 -937.92)"/>
                <path id="Path_30785" d="M2884.993 1004.72a5.8 5.8 0 0 1-9.725-6.341c1.751-2.685 10.57-5.579 10.57-5.579s.906 9.235-.845 11.92z" class="cls-4" data-name="Path 30785" transform="translate(-2635.461 -943.118)"/>
                <path id="Path_30786" d="M2877.811 1053.444a6 6 0 0 1-2.59-11.411c2.922-1.393 11.685.645 12.056.733l.235.055-.106.217c-.166.345-4.105 8.432-7.027 9.825a5.975 5.975 0 0 1-2.568.581z" class="cls-3" data-name="Path 30786" transform="translate(-2636.458 -923.844)"/>
                <path id="Path_30787" d="M2868.086 1011.2a5.8 5.8 0 0 1-7.817 8.583h-.005c-2.368-2.16-3.809-11.329-3.809-11.329s9.262.585 11.631 2.746z" class="cls-4" data-name="Path 30787" transform="translate(-2642.528 -936.93)"/>
                <path id="Path_30788" d="M2855.816 1025.89a5.8 5.8 0 0 1-7.821 8.578c-2.369-2.16-3.809-11.329-3.809-11.329s9.262.591 11.63 2.751z" class="cls-4" data-name="Path 30788" transform="translate(-2647.378 -931.122)"/>
                <path id="Path_30789" d="M2864.043 1030.486c-1.937 0-5.642-1.834-5.812-1.919l-.216-.107.152-.187c.132-.16 3.205-3.928 4.935-4.3a3.311 3.311 0 0 1 1.4 6.472 2.116 2.116 0 0 1-.459.041z" class="cls-3" data-name="Path 30789" transform="translate(-2641.91 -930.823)"/>
                <path id="Path_30790" d="M2845.011 1064.835a28.509 28.509 0 0 1-3.986-.343l-.239-.039.09-.223c.076-.193 1.895-4.7 3.435-5.573a3.311 3.311 0 1 1 3.26 5.764 5.789 5.789 0 0 1-2.56.414z" class="cls-3" data-name="Path 30790" transform="translate(-2648.721 -917.249)"/>
                <path id="Path_30791" d="M2892.823 1134.22h-18.1a1.4 1.4 0 0 1 0-2.791h18.1a1.4 1.4 0 1 1 0 2.791z" class="cls-2" data-name="Path 30791" transform="translate(-2635.857 -888.306)"/>
                <path id="Path_30792" d="M2801.062 1025.8c-2.1 0-4.006-1.513-4.874-3.949-.984-2.761-.2-5.554 1.909-6.79l33.673-19.789a4.885 4.885 0 0 1 3.6-.556l37.883 8.683c2.906.667 4.126 3.857 4.031 6.539-.106 2.937-1.659 5.068-3.958 5.424l-71.587 10.385a4.455 4.455 0 0 1-.677.053zm33.2-28.418a2.114 2.114 0 0 0-1.078.294l-33.675 19.789c-1.092.64-1.124 2.237-.694 3.448.415 1.16 1.342 2.25 2.507 2.072l71.588-10.383c1.1-.172 1.542-1.6 1.583-2.766.057-1.581-.578-3.423-1.865-3.719l-37.883-8.683a2.1 2.1 0 0 0-.48-.05zm-1.786-.908z" class="cls-2" data-name="Path 30792" transform="translate(-2666.521 -942.409)"/>
                <path id="Path_30793" d="M2892.059 990.373h-102.514a1.4 1.4 0 1 1 0-2.791h102.514a1.4 1.4 0 1 1 0 2.791z" class="cls-2" data-name="Path 30793" transform="translate(-2669.533 -945.181)"/>
                <path id="Path_30794" d="M2715.767 1203.109a1.4 1.4 0 0 1-1.4-1.4v-230.5a14.033 14.033 0 0 1 14.016-14.018H2908.6a14.034 14.034 0 0 1 14.019 14.018v35.661a1.4 1.4 0 1 1-2.791 0v-35.657a11.241 11.241 0 0 0-11.228-11.227h-180.212a11.24 11.24 0 0 0-11.225 11.227v230.5a1.4 1.4 0 0 1-1.396 1.396z" class="cls-2" data-name="Path 30794" transform="translate(-2698.704 -957.195)"/>
                <path id="Path_30795" d="M2842.314 1125.368h-126.547a1.4 1.4 0 0 1 0-2.791h126.547a1.4 1.4 0 0 1 0 2.791z" class="cls-2" data-name="Path 30795" transform="translate(-2698.704 -891.806)"/>
                <path id="Path_30796" d="M2866.326 1125.368h-63.05a1.4 1.4 0 1 1 0-2.791h63.05a1.4 1.4 0 1 1 0 2.791z" class="cls-2" data-name="Path 30796" transform="translate(-2664.104 -891.806)"/>
                <path id="Path_30797" d="M2789.545 1190.126a1.4 1.4 0 0 1-1.4-1.4V959.369a1.4 1.4 0 0 1 2.791 0v229.362a1.4 1.4 0 0 1-1.391 1.395z" class="cls-2" data-name="Path 30797" transform="translate(-2669.533 -956.887)"/>
                <path id="Path_30798" d="M2738.76 1015.355a1.4 1.4 0 0 1-.987-2.382l20.766-20.766a1.4 1.4 0 0 1 1.973 1.973l-20.766 20.766a1.391 1.391 0 0 1-.986.409z" class="cls-2" data-name="Path 30798" transform="translate(-2689.612 -943.514)"/>
                <path id="Path_30799" d="M2739.2 996.363a1.4 1.4 0 0 1-.987-2.382l16.449-16.449a1.4 1.4 0 0 1 1.973 1.973l-16.449 16.449a1.392 1.392 0 0 1-.986.409z" class="cls-2" data-name="Path 30799" transform="translate(-2689.44 -949.316)"/>
                <path id="Path_30800" d="M2759.6 989.151a1.358 1.358 0 0 1-.53-.112 1.687 1.687 0 0 1-.461-.305 1.382 1.382 0 0 1-.405-.991 1.415 1.415 0 0 1 .405-.978 1.271 1.271 0 0 1 .461-.305 1.394 1.394 0 0 1 1.06 0 1.267 1.267 0 0 1 .46.305 1.4 1.4 0 0 1 0 1.969 1.683 1.683 0 0 1-.46.305 1.364 1.364 0 0 1-.53.112z" class="cls-2" data-name="Path 30800" transform="translate(-2681.37 -945.666)"/>
                <path id="Path_30801" d="M2764.773 985.847a1.4 1.4 0 0 1-.987-2.382l4.713-4.711a1.395 1.395 0 0 1 1.973 1.973l-4.712 4.711a1.39 1.39 0 0 1-.987.409z" class="cls-2" data-name="Path 30801" transform="translate(-2679.327 -948.833)"/>
                <path id="Path_30802" d="M2748.43 1106.2a1.4 1.4 0 0 1-.987-2.382l23.176-23.177a1.4 1.4 0 0 1 1.973 1.973l-23.176 23.177a1.393 1.393 0 0 1-.986.409z" class="cls-2" data-name="Path 30802" transform="translate(-2685.789 -908.548)"/>
                <path id="Path_30803" d="M2742.251 1105.764a1.4 1.4 0 0 1-.987-2.382l.847-.846a1.395 1.395 0 1 1 1.973 1.973l-.846.846a1.389 1.389 0 0 1-.987.409z" class="cls-2" data-name="Path 30803" transform="translate(-2688.232 -899.891)"/>
                <path id="Path_30804" d="M2758.52 1108.279a1.4 1.4 0 0 1-.987-2.382l9.722-9.719a1.4 1.4 0 0 1 1.973 1.973l-9.721 9.719a1.391 1.391 0 0 1-.987.409z" class="cls-2" data-name="Path 30804" transform="translate(-2681.799 -902.406)"/>
                <path id="Path_30805" d="M2823.346 1000.294a1.4 1.4 0 0 1-1.377-1.182l-.141-.911a6.274 6.274 0 0 1 2.759-6.085 5.179 5.179 0 0 0 2.17-3.533 1.4 1.4 0 0 1 2.764.385 7.991 7.991 0 0 1-3.337 5.438 3.505 3.505 0 0 0-1.6 3.367l.141.911a1.4 1.4 0 0 1-1.381 1.61z" class="cls-2" data-name="Path 30805" transform="translate(-2656.246 -945.261)"/>
                <path id="Path_30806" d="M2830.243 992.317a1.435 1.435 0 0 1-.216-.017 1.4 1.4 0 0 1-1.166-1.592 5.172 5.172 0 0 0-9.884-2.787 1.395 1.395 0 1 1-2.593-1.03 7.867 7.867 0 0 1 6.723-4.916 7.968 7.968 0 0 1 8.513 9.159 1.4 1.4 0 0 1-1.377 1.183z" class="cls-2" data-name="Path 30806" transform="translate(-2658.409 -947.407)"/>
                <path id="Path_30807" d="M2832.022 990.373h-35.416a1.4 1.4 0 1 1 0-2.791h35.416a1.4 1.4 0 1 1 0 2.791z" class="cls-2" data-name="Path 30807" transform="translate(-2666.741 -945.181)"/>
                <path id="Path_30808" d="M2859.3 1104.663h-69.759a1.4 1.4 0 1 1 0-2.791h69.759a1.4 1.4 0 1 1 0 2.791z" class="cls-2" data-name="Path 30808" transform="translate(-2669.533 -899.993)"/>
                <path id="Path_30809" d="M2868.414 1134.22H2776.9a1.4 1.4 0 0 1 0-2.791h91.51a1.4 1.4 0 1 1 0 2.791z" class="cls-2" data-name="Path 30809" transform="translate(-2674.531 -888.306)"/>
                <path id="Path_30810" d="M2793.92 1134.22h-89.382a1.4 1.4 0 0 1 0-2.791h89.382a1.4 1.4 0 1 1 0 2.791z" class="cls-2" data-name="Path 30810" transform="translate(-2703.144 -888.306)"/>
                <path id="Path_30811" d="M2772.615 1134.221a1.45 1.45 0 0 1-1.3-.865 1.4 1.4 0 0 1 2.275-1.521 1.359 1.359 0 0 1 .307 1.521 1.222 1.222 0 0 1-.307.447 1.369 1.369 0 0 1-.975.418z" class="cls-2" data-name="Path 30811" transform="translate(-2676.227 -888.305)"/>
            </g>
            <g id="Group_32426" class="cls-5" data-name="Group 32426" transform="translate(0 39.901)">
                <path id="Path_30812" d="M2718.931 1112.672c-2.366-10.606-7.249-20.675-8.138-31.5-1.021-12.431 3.3-24.616 7.694-36.29 1.319-3.508 2.86-7.74 2.329-11.555a8.642 8.642 0 0 0-.931-3.415 10.227 10.227 0 0 0-5.541-4.584 29.991 29.991 0 0 0-7.316-2.05 31.781 31.781 0 0 1-3.611-.857c-3.608-1.213-6.9-3.249-7.757-6.793-.639-2.639.341-5.741-1.625-7.944-1.886-2.114-5.246-2.616-7.926-2.4-2.64.215-5.11.04-7.34 1.845-2.643 2.138-1.507 5.591-2.211 8.5-.86 3.544-4.149 5.58-7.757 6.793a31.707 31.707 0 0 1-3.612.857 29.991 29.991 0 0 0-7.315 2.05 10.227 10.227 0 0 0-5.541 4.584 8.634 8.634 0 0 0-.931 3.415c-.532 3.815 1.01 8.047 2.329 11.555 4.393 11.674 8.715 23.858 7.694 36.29-.889 10.829-5.771 20.9-8.138 31.5a68.6 68.6 0 0 0-1.482 10.312 52.452 52.452 0 0 0-.454 9.61 34.594 34.594 0 0 0 1.748 9.945 13.019 13.019 0 0 0 3.88 6.736 14.545 14.545 0 0 0 5.433 2.763 28.815 28.815 0 0 0 7.118 1.5 168.5 168.5 0 0 0 33.158 0 28.822 28.822 0 0 0 7.118-1.5 14.551 14.551 0 0 0 5.434-2.763 13 13 0 0 0 3.878-6.736 34.587 34.587 0 0 0 1.749-9.945 52.387 52.387 0 0 0-.455-9.61 68.516 68.516 0 0 0-1.481-10.313z" class="cls-3" data-name="Path 30812" transform="translate(-2639.03 -978.102)"/>
                <path id="Path_30813" d="M2689.916 1153.169h-.936c-5.2 0-10.665-.278-16.244-.827a30.015 30.015 0 0 1-7.464-1.581 15.542 15.542 0 0 1-5.854-3.01 14.2 14.2 0 0 1-4.323-7.435 35.37 35.37 0 0 1-1.8-10.238 53.472 53.472 0 0 1 .466-9.865 69.288 69.288 0 0 1 1.5-10.432c.932-4.179 2.26-8.309 3.545-12.3 1.983-6.168 4.032-12.543 4.564-19.011.963-11.734-2.877-23.1-7.61-35.681-1.266-3.367-3-7.975-2.4-12.24a9.82 9.82 0 0 1 1.075-3.865 11.468 11.468 0 0 1 6.252-5.233 31.324 31.324 0 0 1 7.592-2.132 30.308 30.308 0 0 0 3.453-.818c3.892-1.309 6.2-3.26 6.808-5.787a13.613 13.613 0 0 0 .26-2.682c.072-2.219.156-4.734 2.43-6.574 2.223-1.8 4.592-1.937 6.885-2.069.4-.024.808-.047 1.219-.081 3.811-.3 7.206.762 9.079 2.861 1.612 1.805 1.662 3.991 1.707 5.921a12.639 12.639 0 0 0 .233 2.625c.612 2.526 2.917 4.478 6.846 5.8a30.208 30.208 0 0 0 3.415.807 31.482 31.482 0 0 1 7.658 2.159 11.4 11.4 0 0 1 6.188 5.206 10.045 10.045 0 0 1 1.086 3.96c.583 4.17-1.15 8.778-2.415 12.144-4.735 12.581-8.573 23.949-7.611 35.683.532 6.468 2.583 12.843 4.564 19.011 1.285 3.995 2.614 8.125 3.546 12.3a70.05 70.05 0 0 1 1.511 10.523 52.822 52.822 0 0 1 .458 9.775 35.625 35.625 0 0 1-1.831 10.349 14.033 14.033 0 0 1-4.289 7.324 15.755 15.755 0 0 1-5.945 3.039 29.752 29.752 0 0 1-7.373 1.551c-5.571.545-11.037.823-16.245.823zm-.469-2.792c5.276-.014 10.8-.257 16.447-.812a27.255 27.255 0 0 0 6.774-1.423 13.283 13.283 0 0 0 5.01-2.516 11.549 11.549 0 0 0 3.436-6.037 33.283 33.283 0 0 0 1.7-9.652 50.857 50.857 0 0 0-.445-9.355 68.277 68.277 0 0 0-1.461-10.193c-.9-4.053-2.214-8.123-3.477-12.059-2.032-6.317-4.132-12.849-4.69-19.636-1.011-12.311 2.925-23.992 7.778-36.894 1.161-3.085 2.75-7.312 2.255-10.871a7.375 7.375 0 0 0-.788-2.964 8.838 8.838 0 0 0-4.83-3.936 29.159 29.159 0 0 0-7.038-1.967 33.476 33.476 0 0 1-3.769-.9c-4.935-1.658-7.851-4.277-8.706-7.8a14.925 14.925 0 0 1-.311-3.218c-.038-1.658-.072-3.088-1-4.126-1.524-1.708-4.5-2.125-6.773-1.937-.432.035-.859.06-1.282.085-2.1.123-3.766.218-5.291 1.453-1.221.988-1.326 2.351-1.4 4.5a15.769 15.769 0 0 1-.336 3.247c-.853 3.521-3.769 6.141-8.668 7.787a33.934 33.934 0 0 1-3.807.907 29.023 29.023 0 0 0-6.974 1.941 8.924 8.924 0 0 0-4.893 3.961 7.2 7.2 0 0 0-.778 2.87c-.5 3.656 1.084 7.882 2.244 10.968 4.854 12.9 8.791 24.581 7.779 36.892-.557 6.787-2.658 13.319-4.689 19.636-1.266 3.936-2.574 8.005-3.479 12.059a67.41 67.41 0 0 0-1.452 10.1 51.54 51.54 0 0 0-.454 9.445 32.976 32.976 0 0 0 1.668 9.54 11.731 11.731 0 0 0 3.47 6.147 13.1 13.1 0 0 0 4.921 2.488 27.522 27.522 0 0 0 6.865 1.453c5.658.559 11.158.812 16.444.816z" class="cls-2" data-name="Path 30813" transform="translate(-2638.26 -979.675)"/>
                <path id="Path_30814" d="M2679.586 1143.051a1.4 1.4 0 0 1-1.4-1.4v-32.137a1.4 1.4 0 1 1 2.791 0v32.137a1.4 1.4 0 0 1-1.391 1.4z" class="cls-2" data-name="Path 30814" transform="translate(-2628.395 -937.422)"/>
                <path id="Path_30815" d="M2691.518 1061.252a1.4 1.4 0 0 1-.375-2.739 69.472 69.472 0 0 0 7.876-2.736 1.4 1.4 0 0 1 1.069 2.578 72.308 72.308 0 0 1-8.193 2.845 1.405 1.405 0 0 1-.377.052z" class="cls-2" data-name="Path 30815" transform="translate(-2623.678 -958.161)"/>
                <path id="Path_30816" d="M2682.012 1062.266a1.4 1.4 0 0 1-.076-2.789 59.441 59.441 0 0 0 6.324-.7 1.395 1.395 0 1 1 .455 2.752 62.076 62.076 0 0 1-6.621.737z" class="cls-2" data-name="Path 30816" transform="translate(-2627.435 -956.942)"/>
                <path id="Path_30817" d="M2678 1062.223h-.109a61.15 61.15 0 0 1-6.2-.8 1.4 1.4 0 0 1 .491-2.748 60.43 60.43 0 0 0 5.928.761 1.4 1.4 0 0 1-.106 2.787z" class="cls-2" data-name="Path 30817" transform="translate(-2631.42 -956.982)"/>
                <path id="Path_30818" d="M2669.13 1061.021a1.432 1.432 0 0 1-.393-.056 73.139 73.139 0 0 1-7.373-2.611 1.4 1.4 0 1 1 1.07-2.578 69.988 69.988 0 0 0 7.088 2.51 1.4 1.4 0 0 1-.392 2.735z" class="cls-2" data-name="Path 30818" transform="translate(-2635.389 -958.161)"/>
                <path id="Path_30819" d="M2679.586 1007.061a1.4 1.4 0 0 1-1.4-1.4v-12.582a1.4 1.4 0 0 1 2.791 0v12.586a1.4 1.4 0 0 1-1.391 1.396z" class="cls-2" data-name="Path 30819" transform="translate(-2628.395 -983.459)"/>
                <path id="Path_30820" d="M2680.75 996.805a5.508 5.508 0 1 1 5.51-5.509 5.513 5.513 0 0 1-5.51 5.509zm0-8.225a2.717 2.717 0 1 0 2.719 2.716 2.718 2.718 0 0 0-2.719-2.715z" class="cls-2" data-name="Path 30820" transform="translate(-2629.56 -985.79)"/>
                <path id="Path_30821" d="M2715.7 1134.151h-63.3a1.4 1.4 0 0 1 0-2.791h63.3a1.4 1.4 0 1 1 0 2.791z" class="cls-2" data-name="Path 30821" transform="translate(-2639.144 -928.234)"/>
                <path id="Path_30822" d="M2647.767 1134.151h-3.867a1.4 1.4 0 0 1 0-2.791h3.867a1.4 1.4 0 0 1 0 2.791z" class="cls-2" data-name="Path 30822" transform="translate(-2642.505 -928.234)"/>
                <path id="Path_30823" d="M2685.885 1038.773a57.5 57.5 0 0 1-21.3-4.327 1.4 1.4 0 0 1 1.032-2.6c13.807 5.491 27.04 5.5 39.331.024a1.395 1.395 0 0 1 1.136 2.548 49.184 49.184 0 0 1-20.199 4.355z" class="cls-2" data-name="Path 30823" transform="translate(-2634.121 -967.618)"/>
            </g>
        </g>
    </g>
    <path id="Rectangle_3499" d="M0 0h427.693v427.694H0z" class="cls-6" data-name="Rectangle 3499"/>
</svg>
