<svg width="48" height="48" viewBox="0 0 48 48" fill="none" xmlns="http://www.w3.org/2000/svg">
<path d="M5 43.5999V33.9999H14.6L5 43.5999Z" fill="#00E381"/>
<path d="M9.75 4.99994H38.25C39.5098 4.99994 40.718 5.46652 41.6088 6.29704C42.4996 7.12756 43 8.25398 43 9.42851V31.5714C43 32.7459 42.4996 33.8723 41.6088 34.7028C40.718 35.5334 39.5098 35.9999 38.25 35.9999H5V9.42851C5 8.25398 5.50044 7.12756 6.39124 6.29704C7.28204 5.46652 8.49022 4.99994 9.75 4.99994Z" fill="#007B41"/>
<path d="M9.75 4.99994H38.25C39.5098 4.99994 40.718 5.46652 41.6088 6.29704C42.4996 7.12756 43 8.25398 43 9.42851V31.5714C43 32.7459 42.4996 33.8723 41.6088 34.7028C40.718 35.5334 39.5098 35.9999 38.25 35.9999H19C11.268 35.9999 5 29.7319 5 21.9999V9.42851C5 8.25398 5.50044 7.12756 6.39124 6.29704C7.28204 5.46652 8.49022 4.99994 9.75 4.99994Z" fill="url(#paint0_linear_1475_70941)"/>
<path d="M24.1074 24.36V22.5543L29.5743 15.1989H32.3905L27.0396 22.5543L25.7309 22.1732H34.8589V24.36H24.1074ZM30.3529 26.7952V24.36L30.4357 22.1732V20.0031H32.9704V26.7952H30.3529Z" fill="white"/>
<path d="M14.5301 26.7952V25.0557L19.003 20.8313C19.3564 20.511 19.616 20.2239 19.7816 19.9699C19.9473 19.7159 20.0577 19.4839 20.1129 19.2741C20.1792 19.0643 20.2123 18.871 20.2123 18.6943C20.2123 18.2304 20.0522 17.877 19.7319 17.634C19.4227 17.38 18.9643 17.253 18.3569 17.253C17.871 17.253 17.4182 17.3469 16.9985 17.5346C16.5899 17.7224 16.242 18.0151 15.9548 18.4126L14 17.1536C14.4418 16.491 15.0602 15.9664 15.8554 15.5798C16.6506 15.1933 17.5673 15 18.6054 15C19.4669 15 20.2179 15.1436 20.8584 15.4307C21.51 15.7068 22.0125 16.0989 22.366 16.6069C22.7304 17.115 22.9126 17.7224 22.9126 18.4292C22.9126 18.8047 22.8629 19.1802 22.7635 19.5557C22.6752 19.9202 22.4874 20.3067 22.2003 20.7154C21.9242 21.124 21.5156 21.5823 20.9744 22.0904L17.2635 25.5858L16.75 24.6084H23.2937V26.7952H14.5301Z" fill="white"/>
<defs>
<linearGradient id="paint0_linear_1475_70941" x1="43" y1="9.1782" x2="7.44788" y2="36.2495" gradientUnits="userSpaceOnUse">
<stop stop-color="#00BB6A"/>
<stop offset="1" stop-color="#029C59"/>
</linearGradient>
</defs>
</svg>
