<svg width="48" height="48" viewBox="0 0 48 48" fill="none" xmlns="http://www.w3.org/2000/svg">
<path d="M23.9992 43.2C19.3383 42.5387 15.0726 40.2174 11.9862 36.6627C8.89973 33.108 7.19995 28.5588 7.19923 23.8512V17.184C7.19756 16.3398 7.41856 15.5101 7.83993 14.7786C8.2613 14.0471 8.86814 13.4397 9.59923 13.0176L21.5992 6.16318C22.3243 5.74899 23.145 5.53113 23.98 5.53113C24.8151 5.53113 25.6357 5.74899 26.3608 6.16318L38.3992 13.0176C39.1303 13.4397 39.7372 14.0471 40.1585 14.7786C40.5799 15.5101 40.8009 16.3398 40.7992 17.184V23.8464C40.8007 28.5551 39.1018 33.106 36.0151 36.6619C32.9283 40.2178 28.6614 42.5395 23.9992 43.2Z" fill="#007B41"/>
<path d="M22.6792 5.7168C22.3085 5.82115 21.9522 5.9711 21.6184 6.1632L9.59923 13.0176C8.86814 13.4397 8.2613 14.0471 7.83993 14.7786C7.41856 15.5101 7.19756 16.3398 7.19923 17.184V24.0048C9.64788 25.8368 12.7036 26.6649 15.7422 26.3198C18.7808 25.9747 21.5731 24.4824 23.5485 22.1479C25.5239 19.8134 26.5336 16.8128 26.3711 13.759C26.2086 10.7051 24.8864 7.82855 22.6744 5.7168H22.6792Z" fill="#00E381"/>
<path d="M24 37.7904C20.6761 37.3184 17.6335 35.6645 15.4296 33.1319C13.2258 30.5992 12.0082 27.3573 12 24V18.384C12.0004 18.0319 12.0938 17.6862 12.2708 17.3819C12.4478 17.0776 12.7021 16.8255 13.008 16.6512L23.0064 10.9344C23.3093 10.7623 23.6516 10.6718 24 10.6718C24.3484 10.6718 24.6907 10.7623 24.9936 10.9344L34.992 16.6512C35.2979 16.8255 35.5522 17.0776 35.7292 17.3819C35.9062 17.6862 35.9996 18.0319 36 18.384V23.9712C35.9997 27.3337 34.7857 30.5831 32.581 33.122C30.3763 35.6609 27.3293 37.3186 24 37.7904Z" fill="url(#paint0_linear_1475_70955)"/>
<path d="M21.8379 30.7501L26.0679 21.1801L26.6979 22.2301H21.0429L22.1229 21.0901V23.9401H19.9629V20.2501H28.3779V21.8251L24.4779 30.7501H21.8379Z" fill="white"/>
<defs>
<linearGradient id="paint0_linear_1475_70955" x1="36" y1="14.3269" x2="8.75969" y2="29.3023" gradientUnits="userSpaceOnUse">
<stop stop-color="#00BB6A"/>
<stop offset="1" stop-color="#029C59"/>
</linearGradient>
</defs>
</svg>
