<svg width="48" height="48" viewBox="0 0 48 48" fill="none" xmlns="http://www.w3.org/2000/svg">
<g clip-path="url(#clip0_1475_70934)">
<path d="M31.9999 26.0001V34.7641C31.9999 35.1355 31.8965 35.4996 31.7012 35.8155C31.506 36.1315 31.2266 36.3868 30.8944 36.5529L26.0625 38.9689C25.8062 39.097 25.5254 39.1686 25.239 39.1788C24.9526 39.1889 24.6674 39.1375 24.4027 39.0278C24.138 38.9181 23.8999 38.7529 23.7046 38.5432C23.5093 38.3335 23.3613 38.0843 23.2707 37.8125L21.375 33" fill="#00E381"/>
<path d="M15.0001 27L10.1879 24.7292C9.91601 24.6385 9.66682 24.4906 9.45715 24.2953C9.24747 24.1 9.08221 23.8619 8.97255 23.5972C8.8629 23.3324 8.81141 23.0472 8.82157 22.7609C8.83173 22.4745 8.90331 22.1937 9.03145 21.9374L11.4475 17.1055C11.6135 16.7733 11.8689 16.4939 12.1848 16.2987C12.5007 16.1034 12.8648 16 13.2362 15.9999H22.0002" fill="#00E381"/>
<path d="M34.191 24.2469L23.3975 32.8817C23.0132 33.1892 22.529 33.3442 22.0375 33.3169C21.5461 33.2897 21.0819 33.0822 20.7339 32.7342L15.2655 27.2658C14.9174 26.9177 14.71 26.4536 14.6827 25.9622C14.6555 25.4707 14.8105 24.9865 15.118 24.6022L23.7528 13.8087C25.702 11.3721 28.1743 9.40519 30.9867 8.0535C33.799 6.70182 36.8794 6 39.9997 6C40.5301 6 41.0388 6.21071 41.4139 6.58579C41.789 6.96086 41.9997 7.46957 41.9997 8C41.9997 11.1203 41.2979 14.2007 39.9462 17.013C38.5945 19.8254 36.6276 22.2977 34.191 24.2469Z" fill="url(#paint0_linear_1475_70934)"/>
<path d="M11.5002 41.1737L6 42L6.8263 36.4998C6.95688 35.6306 7.36271 34.8262 7.98421 34.2047C8.6057 33.5832 9.41011 33.1774 10.2793 33.0468C10.9151 32.9513 11.5644 33.0063 12.1751 33.2074C12.7858 33.4085 13.3408 33.7501 13.7954 34.2047C14.25 34.6594 14.5916 35.2143 14.7927 35.825C14.9938 36.4357 15.0488 37.085 14.9533 37.7208C14.8227 38.59 14.4168 39.3944 13.7953 40.0159C13.1738 40.6374 12.3694 41.0432 11.5002 41.1737Z" fill="#007B41"/>
</g>
<defs>
<linearGradient id="paint0_linear_1475_70934" x1="41.9997" y1="9.68226" x2="12.8627" y2="27.7817" gradientUnits="userSpaceOnUse">
<stop stop-color="#00BB6A"/>
<stop offset="1" stop-color="#029C59"/>
</linearGradient>
<clipPath id="clip0_1475_70934">
<rect width="48" height="48" fill="white"/>
</clipPath>
</defs>
</svg>
