<svg width="48" height="48" viewBox="0 0 48 48" fill="none" xmlns="http://www.w3.org/2000/svg">
<path d="M14.3984 27.8784H33.5984V43.2C33.5992 43.6097 33.4952 44.0128 33.2961 44.3708C33.0971 44.7289 32.8097 45.03 32.4613 45.2456C32.1129 45.4612 31.7152 45.584 31.3059 45.6023C30.8966 45.6207 30.4895 45.534 30.1232 45.3504L25.0736 42.816C24.7399 42.6488 24.3717 42.5617 23.9984 42.5617C23.6251 42.5617 23.257 42.6488 22.9232 42.816L17.8736 45.3456C17.5077 45.529 17.101 45.6157 16.6922 45.5976C16.2833 45.5795 15.8859 45.4571 15.5376 45.2421C15.1894 45.0271 14.9019 44.7266 14.7025 44.3692C14.5031 44.0117 14.3985 43.6093 14.3984 43.2V27.8784Z" fill="#00E381"/>
<path d="M23.9992 38.4C33.2776 38.4 40.7992 30.8784 40.7992 21.6C40.7992 12.3216 33.2776 4.79999 23.9992 4.79999C14.7208 4.79999 7.19922 12.3216 7.19922 21.6C7.19922 30.8784 14.7208 38.4 23.9992 38.4Z" fill="#007B41"/>
<path d="M24 33.6C30.6274 33.6 36 28.2274 36 21.6C36 14.9726 30.6274 9.59998 24 9.59998C17.3726 9.59998 12 14.9726 12 21.6C12 28.2274 17.3726 33.6 24 33.6Z" fill="url(#paint0_linear_1475_70949)"/>
<path fill-rule="evenodd" clip-rule="evenodd" d="M30.4951 18.1984L23.2692 25.7875C23.0427 26.0253 22.7287 26.1599 22.4003 26.16C22.072 26.1601 21.7579 26.0255 21.5314 25.7878L17.502 21.559L19.2395 19.9034L22.3998 23.2201L28.7569 16.5435L30.4951 18.1984Z" fill="white"/>
<defs>
<linearGradient id="paint0_linear_1475_70949" x1="36" y1="12.8348" x2="10.4038" y2="28.7347" gradientUnits="userSpaceOnUse">
<stop stop-color="#00BB6A"/>
<stop offset="1" stop-color="#029C59"/>
</linearGradient>
</defs>
</svg>
